<svg xmlns="http://www.w3.org/2000/svg" width="998" height="248" viewBox="0 0 998 248">
  <defs>
    <style>
      .cls-1 {
        fill: #ad1f50;
       
      }
    </style>
  </defs>
  <path id="Warda" class="cls-1" d="M164.077,231.99q10.511,14.443,28.455,14.441,25.29,0,56.567-30.249t52.3-77.332q21.021-47.079,21.021-92.029a90.168,90.168,0,0,0-5.9-32.385q-5.9-15.465-11.707-15.466-6.151,0-20.251,8.887t-14.1,16.235q0,2.223,4.272,11.279,15.381,31.274,15.381,62.891a135.795,135.795,0,0,1-13.159,57.849Q263.794,184.4,244.57,202.6t-30.334,18.2a13.951,13.951,0,0,1-11.963-6.238q-4.446-6.24-4.443-16.839,0-24.273,13.407-76.752L242.56,1.691q0-2.72-6.66-2.721T214.466,0.593Q199.694,2.219,198.5,5.122q-11.616,26.492-21.007,62.036l-16.065,60.156Q149.291,172.6,134.6,196.87t-29.565,24.268a13.785,13.785,0,0,1-10.938-4.705q-4.1-4.7-4.1-12.746-0.1-16.935,17.341-66.949t17.693-77.332q0-25.947-14.526-43.363T74.954-1.372q-28.03,0-51.184,27T0.613,85.615q0,16.238,7.178,24.439t12.817,8.2q5.3,0,12.647-8.887T40.6,97.92q0-2.219-4.785-8.032Q24.194,76.045,24.2,63.228q0-16.747,12.988-32.812T63.333,14.351A18.056,18.056,0,0,1,77.6,21.016q5.724,6.665,5.725,16.748,0,22.559-19.055,76.9T45.217,195.674q0,22.9,11.45,36.828t30.42,13.929q36.229,0,66.993-57.764Q153.567,217.55,164.077,231.99Zm340.345-46.912Q489.9,199.606,481.874,206.7t-14.69,7.092q-10.422,0-10.419-14.692,0-14.012,11.648-51.785l15.073-50.076H473.9l-34.93,19.312Q430.42,96.9,409.06,96.895q-16.918,0-38.965,14.356a115.908,115.908,0,0,0-36.145,37.6q-14.1,23.242-14.1,48.877,0,20.506,10.51,34.607t25.55,14.1q15.381,0,29.822-11.621t31.53-36.06q-1.537,47.68,25.464,47.681,10.767,0,22.559-7.862t39.136-33.838V185.078ZM367.788,208.406q-4.53-5.724-4.529-14.954,0-24.436,15.3-53.491t32.385-29.053a13.867,13.867,0,0,1,11.45,5.384q4.271,5.382,4.273,14.953,0,24.609-15.125,53.748t-32.214,29.138A14.081,14.081,0,0,1,367.788,208.406Zm264.295-23.328q-19.654,18.97-25.293,23.157A19.5,19.5,0,0,1,595,212.422a10.781,10.781,0,0,1-8.972-4.273q-3.333-4.269-3.333-11.45a64.335,64.335,0,0,1,2.9-17.688q2.9-10,12.818-37.683l15.893-43.75-15.552.684Q577.565,138.6,549.2,141.67q7.69-19.995,7.69-30.762,0-13.669-13.33-13.672-15.725,0-24.7,14.954T509.89,140.3q0,12.818,14.7,19.311a223.548,223.548,0,0,1-24.1,29.737v15.38h3.931q23.751-23.583,34.863-44.091a95.217,95.217,0,0,0,27.685-9.058q-25.806,40.5-25.805,64.6,0,12.989,7.177,21.789t17.6,8.8q23.239,0,66.138-42.041V185.078Zm182.519,0q-25.078,28.371-36,28.369a8.351,8.351,0,0,1-7.165-3.928q-2.732-3.928-2.729-10.422,0-27.669,34.148-161.662Q811.4,3.938,811.4,2.051q0-2.74-3.421-2.74-10.438,0-40.372,7.007l-24.438,102.2A44.1,44.1,0,0,0,732.144,99.8q-5.043-2.564-13.929-2.564-31.959,0-59.729,32.556t-27.771,70.667a49.73,49.73,0,0,0,11.109,32.214q11.108,13.76,25.635,13.758,13.329,0,29.821-11.792t30.506-34.522q0.168,22.731,7.263,34.522t19.226,11.792q9.909,0,22.815-8.631T814.6,204.731V185.078ZM679.165,208.32q-4.357-5.467-4.358-14.868,0-23.924,14.868-53.577t30.762-29.65a14.208,14.208,0,0,1,11.878,5.981q4.525,5.983,4.528,16.065,0,24.782-14.526,53.149t-31.274,28.369A14.365,14.365,0,0,1,679.165,208.32Zm317.786-23.242Q982.431,199.606,974.4,206.7t-14.689,7.092q-10.422,0-10.42-14.692,0-14.012,11.648-51.785l15.074-50.076h-9.589L931.5,116.548Q922.949,96.9,901.589,96.895q-16.919,0-38.964,14.356a115.888,115.888,0,0,0-36.145,37.6q-14.1,23.242-14.1,48.877,0,20.506,10.51,34.607t25.549,14.1q15.381,0,29.822-11.621t31.531-36.06q-1.539,47.68,25.463,47.681,10.767,0,22.559-7.862t39.136-33.838V185.078ZM860.318,208.406q-4.531-5.724-4.529-14.954,0-24.436,15.295-53.491t32.385-29.053a13.869,13.869,0,0,1,11.451,5.384q4.269,5.382,4.272,14.953,0,24.609-15.124,53.748t-32.215,29.138A14.078,14.078,0,0,1,860.318,208.406Z"/>
</svg>
